<?xml version="1.0" standalone="no"?>
<!DOCTYPE svg PUBLIC "-//W3C//DTD SVG 20010904//EN"
 "http://www.w3.org/TR/2001/REC-SVG-20010904/DTD/svg10.dtd">
<svg version="1.0" xmlns="http://www.w3.org/2000/svg"
 width="512.000000pt" height="512.000000pt" viewBox="0 0 512.000000 512.000000"
 preserveAspectRatio="xMidYMid meet">
<metadata>
Created by potrace 1.15, written by Peter Selinger 2001-2017
</metadata>
<g transform="translate(0.000000,512.000000) scale(0.100000,-0.100000)"
fill="#000000" stroke="none">
<path d="M2294 5031 c19 -7 18 -8 -4 -14 -14 -4 -27 -1 -31 5 -6 9 -15 8 -35
-2 -20 -11 -28 -12 -31 -3 -3 8 -11 5 -24 -8 -11 -11 -24 -17 -29 -14 -6 3
-58 -6 -116 -20 -58 -14 -109 -24 -112 -21 -3 4 3 6 13 6 10 0 16 3 12 6 -8 8
-177 -48 -172 -57 3 -4 -1 -7 -8 -6 -34 1 -48 -4 -41 -15 5 -7 2 -9 -9 -5 -9
3 -17 3 -19 -2 -3 -7 -155 -81 -167 -81 -3 1 23 16 59 35 36 19 62 34 57 35
-16 1 -207 -101 -207 -111 0 -5 -4 -8 -9 -5 -5 3 -12 -1 -15 -10 -4 -9 -13
-14 -22 -10 -8 3 -12 2 -9 -4 6 -9 -8 -14 -28 -11 -14 2 -192 -120 -189 -130
1 -6 -2 -8 -7 -5 -13 9 -62 -34 -54 -47 3 -7 3 -9 -2 -5 -11 10 -47 -11 -40
-23 4 -5 1 -8 -7 -7 -7 2 -12 -4 -10 -12 2 -8 0 -12 -3 -8 -10 10 -47 -11 -40
-22 3 -6 0 -7 -8 -4 -9 3 -16 -3 -20 -16 -3 -11 -11 -19 -19 -18 -7 2 -12 -3
-11 -9 2 -7 -3 -12 -10 -10 -6 1 -11 -4 -9 -11 1 -8 -1 -11 -6 -8 -10 6 -98
-85 -94 -96 1 -5 -4 -7 -11 -5 -6 1 -11 -4 -10 -10 2 -7 -1 -12 -6 -10 -12 3
-82 -83 -75 -94 3 -5 0 -8 -8 -7 -7 2 -12 -4 -10 -12 2 -8 0 -12 -4 -7 -10 10
-44 -22 -38 -37 3 -7 -9 -24 -26 -39 -17 -15 -28 -32 -25 -37 4 -6 1 -10 -4
-10 -16 0 -72 -81 -64 -93 3 -6 1 -7 -5 -3 -7 4 -12 3 -12 -2 0 -5 -11 -26
-25 -46 -14 -21 -23 -42 -20 -47 4 -5 1 -9 -5 -9 -6 0 -9 -4 -6 -9 3 -5 -1
-12 -10 -15 -9 -4 -14 -13 -10 -22 3 -8 2 -13 -2 -10 -8 5 -26 -23 -70 -107
-8 -16 -15 -39 -16 -52 0 -13 -5 -21 -10 -17 -5 3 -7 -2 -3 -11 3 -10 2 -17
-4 -17 -6 0 -7 -4 -4 -10 3 -5 2 -10 -3 -10 -6 0 -8 -8 -5 -19 2 -10 -3 -25
-12 -34 -22 -23 -56 -126 -49 -151 3 -14 2 -17 -3 -9 -10 14 -37 -72 -28 -88
4 -5 1 -9 -5 -9 -8 0 -10 -9 -6 -26 4 -15 3 -23 -2 -20 -12 7 -22 -41 -15 -75
6 -32 -14 -109 -28 -109 -7 0 -8 -14 -4 -40 4 -21 3 -45 -2 -52 -11 -19 -14
-158 -3 -158 6 0 10 -7 10 -15 0 -18 -16 -20 -24 -2 -3 6 -3 -42 0 -108 14
-278 21 -359 33 -363 7 -2 8 -14 5 -29 -5 -20 -4 -24 6 -18 10 6 12 3 8 -13
-12 -43 65 -321 124 -450 15 -34 28 -65 28 -70 0 -10 103 -216 111 -222 3 -3
16 -25 29 -49 12 -24 30 -53 41 -64 10 -12 19 -27 19 -34 0 -7 4 -13 8 -13 5
0 15 -12 23 -27 8 -15 26 -41 42 -57 15 -16 27 -33 27 -37 0 -5 20 -30 45 -56
25 -25 45 -50 45 -54 0 -5 15 -23 33 -41 l32 -33 -3 -158 c-2 -130 -5 -157
-17 -157 -8 0 -15 -4 -15 -10 0 -5 -10 -10 -22 -10 -12 0 -35 -4 -52 -9 -17
-5 -49 -14 -71 -19 -138 -35 -267 -73 -275 -83 -3 -3 -17 -9 -32 -12 -15 -4
-33 -14 -42 -22 -8 -8 -20 -15 -26 -15 -6 0 -26 -16 -45 -35 -43 -42 -47 -84
-10 -120 13 -14 31 -25 39 -25 8 0 16 -4 18 -9 4 -12 115 -65 163 -78 22 -6
65 -19 95 -28 81 -25 183 -48 271 -61 26 -4 40 -13 48 -30 24 -54 51 -57 491
-66 1316 -24 2092 -20 2375 13 108 13 97 13 214 -2 126 -17 261 -2 300 34 39
36 65 47 115 47 25 0 46 4 46 9 0 5 24 12 53 14 80 9 127 18 127 27 0 4 19 10
43 14 84 10 117 18 117 27 0 5 14 9 30 9 17 0 30 5 30 10 0 6 14 10 30 10 17
0 30 5 30 10 0 6 14 10 30 10 17 0 30 5 30 10 0 6 9 10 20 10 11 0 20 5 20 10
0 6 8 10 18 10 10 0 24 9 32 20 8 11 20 20 28 20 7 0 29 16 49 36 28 29 33 38
22 45 -12 8 -12 11 1 19 13 9 13 11 0 20 -13 8 -13 11 -1 19 11 7 3 19 -32 55
-26 25 -53 46 -62 46 -8 0 -15 5 -15 10 0 6 -9 10 -20 10 -11 0 -20 5 -20 10
0 6 -9 10 -20 10 -11 0 -20 5 -20 10 0 6 -9 10 -20 10 -11 0 -20 5 -20 10 0 6
-9 10 -20 10 -11 0 -20 5 -20 10 0 6 -18 10 -40 10 -22 0 -40 5 -40 10 0 6
-13 10 -30 10 -16 0 -30 5 -30 10 0 6 -18 10 -40 10 -22 0 -40 4 -40 9 0 5
-19 11 -42 15 -24 3 -59 8 -78 11 l-35 7 -1 131 c0 98 -4 141 -16 168 -9 21
-12 42 -8 50 5 7 6 17 3 23 -3 5 -1 6 4 3 12 -8 46 27 36 36 -3 4 0 7 7 7 7 0
10 3 7 7 -4 3 -1 11 6 17 18 15 92 107 101 126 4 8 0 6 -8 -4 -24 -30 -19 -10
9 34 14 22 30 40 36 40 5 0 8 4 4 9 -3 6 5 20 17 32 13 12 16 19 8 15 -8 -4
-7 -1 4 8 10 8 15 20 10 27 -4 7 -3 10 4 5 6 -3 16 2 21 13 14 26 14 40 0 21
-9 -13 -10 -13 -6 0 2 8 9 14 16 13 12 -3 46 56 37 64 -3 3 -10 -6 -15 -21 -6
-14 -13 -26 -16 -26 -3 0 1 15 8 32 19 44 70 138 63 115 -4 -11 -2 -15 4 -12
6 3 7 18 4 32 -5 17 -3 24 4 19 13 -8 26 29 16 45 -4 7 -3 9 3 6 7 -4 22 24
38 71 15 42 31 87 36 100 14 36 10 50 -6 17 l-14 -30 7 30 c3 17 6 40 5 53 0
12 3 22 7 22 10 0 31 91 23 103 -2 4 0 14 6 21 7 8 11 18 10 22 -3 20 2 35 10
29 6 -3 8 11 5 32 -3 28 -1 34 6 23 7 -11 10 -7 10 18 0 23 -4 31 -12 26 -8
-5 -9 -2 -2 12 13 27 17 520 5 555 -6 18 -6 29 0 29 5 0 9 15 9 33 0 25 -3 29
-11 17 -8 -12 -10 -10 -5 9 3 14 2 30 -3 35 -4 6 -15 49 -25 96 -9 47 -27 121
-41 165 -13 43 -22 81 -20 83 2 2 11 -21 21 -52 10 -31 19 -54 22 -52 2 3 -4
29 -13 58 -39 117 -57 158 -67 152 -7 -4 -8 -2 -4 5 10 16 -3 53 -16 45 -6 -4
-8 1 -3 16 5 15 3 20 -3 16 -13 -8 -26 29 -16 45 5 8 3 9 -6 4 -10 -6 -12 -4
-7 9 4 10 3 15 -3 11 -10 -6 -30 25 -30 47 0 9 3 9 10 -2 23 -36 7 8 -22 59
-39 70 -63 104 -54 78 4 -11 2 -16 -5 -11 -6 3 -8 15 -6 26 3 11 3 17 0 14
-10 -10 -35 33 -27 46 5 7 3 8 -5 4 -8 -5 -11 -3 -10 5 4 19 -20 61 -31 54 -5
-3 -12 0 -16 6 -5 8 -3 9 6 4 8 -5 11 -3 8 6 -3 8 -10 14 -16 14 -5 0 -14 4
-19 9 -5 5 -3 6 5 2 18 -11 15 9 -5 25 -14 12 -16 12 -8 0 5 -10 4 -12 -4 -7
-6 4 -9 11 -6 15 2 5 -3 17 -11 27 -9 10 -13 13 -9 7 3 -7 1 -13 -4 -13 -6 0
-11 5 -11 12 0 6 -8 20 -17 31 -10 11 -12 17 -5 13 6 -4 12 -4 12 1 -1 11 -47
63 -57 63 -14 0 -114 106 -117 124 -3 19 -63 83 -91 97 -14 7 -12 4 5 -10 14
-11 23 -22 20 -24 -3 -3 -30 20 -60 51 -30 31 -46 48 -34 39 11 -9 24 -17 28
-17 4 0 -16 19 -45 43 -94 76 -115 90 -64 42 l50 -47 -49 36 c-27 20 -53 36
-59 36 -5 0 -7 6 -4 14 7 18 -12 36 -31 29 -8 -4 -13 -2 -9 3 3 5 -25 30 -61
55 -95 65 -122 82 -122 77 0 -3 32 -26 70 -52 39 -25 70 -48 70 -51 0 -2 -35
18 -77 45 -43 28 -78 56 -78 62 0 7 -10 13 -22 12 -12 0 -19 4 -16 9 4 6 -1 8
-11 4 -10 -4 -15 -3 -11 3 5 8 -136 86 -203 111 -48 18 -16 -1 76 -46 51 -24
92 -47 92 -50 0 -3 -30 10 -67 28 -38 19 -94 44 -125 57 -31 13 -55 27 -52 31
6 11 -33 22 -47 13 -7 -4 -9 -3 -6 3 6 9 -160 70 -168 61 -3 -2 29 -15 70 -27
42 -13 73 -26 71 -29 -3 -2 -18 0 -33 6 -38 15 -249 70 -298 78 -22 3 -55 8
-72 11 -18 3 -31 9 -28 13 3 5 -4 8 -15 7 -11 -1 -20 -5 -20 -10 0 -9 -42 1
-50 12 -7 10 -406 11 -440 1 -18 -5 -30 -5 -30 1 0 5 -17 9 -37 8 -28 0 -33
-2 -19 -8z m531 -41 c305 -34 615 -133 883 -283 106 -59 252 -157 317 -213 42
-36 12 -20 -65 36 -442 321 -996 483 -1535 450 -436 -27 -820 -159 -1200 -411
-82 -55 -134 -86 -115 -68 73 64 280 194 425 265 229 112 466 184 720 218 120
17 445 20 570 6z m-37 -291 c635 -69 1215 -437 1534 -973 67 -112 60 -119 -10
-11 -321 494 -791 818 -1345 930 -242 49 -562 49 -805 0 -552 -112 -1013 -428
-1337 -918 -63 -94 -85 -112 -35 -28 333 566 909 934 1570 1004 79 8 337 6
428 -4z m34 -54 c122 -16 311 -60 423 -98 l70 -24 3 -1471 2 -1472 -32 0 c-19
0 -41 9 -55 21 -22 21 -24 22 -75 6 -105 -32 -102 -33 -144 13 -23 25 -69 56
-113 77 l-74 36 -17 -23 c-10 -13 -25 -36 -34 -51 -16 -27 -16 -28 19 -49 19
-12 35 -26 35 -31 0 -5 -25 -9 -55 -9 -30 0 -55 4 -55 8 0 4 9 52 21 106 24
112 22 116 -48 116 -49 0 -76 -27 -87 -85 -6 -30 -11 -35 -26 -30 -17 5 -19 0
-22 -52 l-3 -58 -42 -2 c-52 -3 -54 8 -8 37 l34 21 -21 45 -22 44 -26 -25
c-14 -14 -33 -25 -42 -25 -31 0 -146 -40 -180 -64 -25 -16 -51 -24 -89 -25
-30 -1 -74 -3 -99 -4 l-45 -2 -3 1485 c-1 817 0 1494 3 1506 4 17 21 24 102
42 90 20 181 36 258 45 82 10 346 5 447 -8z m-866 -1557 c-6 -1388 -7 -1473
-24 -1480 -9 -3 -20 -7 -24 -7 -5 -1 -8 662 -8 1473 0 1170 3 1475 13 1479 6
3 21 6 31 6 18 1 19 -30 12 -1471z m-109 400 c-4 -574 -8 -1234 -8 -1468 -1
-313 -4 -407 -11 -355 -5 39 -10 232 -11 430 -2 426 13 2404 19 2423 2 6 7 12
10 12 4 0 4 -469 1 -1042z m1683 932 l60 -30 2 -945 c2 -520 3 -1149 3 -1397
l0 -453 -21 -3 c-25 -4 -25 -2 -49 253 -62 671 -75 1025 -68 1866 3 406 8 739
10 739 2 0 30 -14 63 -30z m-1862 -1402 l-3 -1423 -32 -3 -33 -3 -2 243 c0
134 -2 257 -4 273 -7 71 -17 2253 -11 2278 7 25 47 56 75 57 10 0 12 -288 10
-1422z m-115 475 c3 -1391 1 -1883 -9 -1893 -5 -5 -35 -13 -67 -18 -57 -9 -59
-8 -68 15 -7 18 -14 23 -29 18 -20 -6 -20 -3 -18 1321 l3 1327 85 58 c47 32
88 58 93 59 4 0 8 -399 10 -887z m2184 93 c-4 -566 -13 -884 -27 -936 -1 -3
-6 6 -13 20 -8 18 -12 261 -15 844 l-4 819 32 -23 31 -22 -4 -702z m170 568
c7 -18 -14 -666 -27 -824 l-7 -95 -1 145 c-3 251 11 790 20 790 5 0 11 -7 15
-16z m-2756 -1154 c-6 -377 -11 -844 -11 -1037 l0 -353 -25 -6 c-14 -3 -58 -7
-98 -8 l-72 -1 -3 1105 c-1 608 0 1115 3 1127 6 25 82 122 159 201 l51 53 3
-198 c2 -109 -2 -506 -7 -883z m2909 -193 l0 -1197 -26 -10 c-14 -6 -27 -10
-30 -10 -2 0 -4 559 -4 1243 l0 1242 30 -35 30 -35 0 -1198z m-3331 53 c-4
-333 -8 -693 -9 -800 0 -115 -4 -189 -9 -180 -5 8 -23 55 -41 105 l-31 90 11
190 c6 104 17 397 24 650 12 436 14 463 35 509 12 27 23 47 25 45 2 -2 0 -276
-5 -609z m3826 152 c43 -246 41 -504 -6 -750 -19 -97 -77 -299 -83 -290 -2 1
1 66 5 143 21 350 29 530 35 790 7 256 9 276 21 235 7 -25 20 -82 28 -128z
m-2185 -2117 c0 -146 1 -268 3 -272 1 -5 -33 -9 -75 -11 l-78 -3 0 -29 0 -30
75 0 75 0 0 -80 0 -80 -155 0 -155 0 0 110 0 110 -35 0 -35 0 0 -110 0 -110
-80 0 -80 0 -2 172 c-2 95 -2 269 0 386 l3 212 269 0 270 0 0 -265z m260 -40
l0 -305 110 0 110 0 0 305 0 305 80 0 80 0 0 -385 0 -385 -270 0 -270 0 0 385
0 385 80 0 80 0 0 -305z m1010 225 l0 -80 -190 0 -190 0 0 -65 0 -65 190 0
190 0 0 -240 0 -240 -270 0 -270 0 0 80 0 80 188 2 187 3 1 77 1 78 -191 2
-191 3 -3 210 c-1 115 0 215 2 222 4 10 66 13 276 13 l270 0 0 -80z m620 0 l0
-80 -95 0 -95 0 0 -305 0 -305 -80 0 -80 0 0 305 0 305 -95 0 -95 0 0 80 0 80
270 0 270 0 0 -80z"/>
<path d="M2703 2563 c-23 -34 -22 -133 0 -183 9 -19 43 -71 77 -115 93 -123
110 -202 63 -295 -35 -67 -83 -106 -151 -122 -68 -16 -67 -33 1 -24 64 9 133
38 171 74 97 91 101 268 9 385 -21 26 -57 71 -81 101 -55 69 -77 153 -47 186
18 20 18 20 -3 20 -12 0 -29 -12 -39 -27z"/>
<path d="M2547 2470 c-3 -8 -8 -39 -11 -67 -3 -29 -21 -90 -42 -135 -48 -110
-64 -174 -64 -259 0 -110 32 -161 113 -176 25 -4 30 -3 20 7 -6 7 -22 17 -35
24 -43 21 -60 71 -55 171 3 78 9 104 46 194 23 58 45 125 47 150 5 49 -9 118
-19 91z"/>
<path d="M2635 2160 c29 -57 19 -96 -46 -167 -22 -24 -39 -49 -39 -57 0 -20
27 -39 46 -32 13 5 14 9 4 21 -10 12 -5 23 29 60 22 24 41 54 41 65 0 11 7 20
15 20 29 0 24 -112 -6 -153 -23 -31 -18 -47 9 -31 31 19 63 95 56 134 -15 86
-70 170 -111 170 -11 0 -11 -5 2 -30z"/>
<path d="M1990 885 l0 -115 110 0 110 0 0 115 0 115 -110 0 -110 0 0 -115z"/>
</g>
</svg>
