<?xml version="1.0" standalone="no"?>
<!DOCTYPE svg PUBLIC "-//W3C//DTD SVG 20010904//EN"
 "http://www.w3.org/TR/2001/REC-SVG-20010904/DTD/svg10.dtd">
<svg version="1.0" xmlns="http://www.w3.org/2000/svg"
 width="356.000000pt" height="360.000000pt" viewBox="0 0 356.000000 360.000000"
 preserveAspectRatio="xMidYMid meet">
<metadata>
Created by potrace 1.14, written by Peter Selinger 2001-2017
</metadata>
<g transform="translate(0.000000,360.000000) scale(0.100000,-0.100000)"
fill="#000000" stroke="none">
<path d="M1220 3384 c-19 -2 -78 -9 -130 -15 -142 -16 -226 -37 -260 -66 -16
-13 -58 -38 -92 -55 -72 -34 -94 -52 -114 -89 -7 -15 -45 -181 -83 -369 -38
-188 -77 -352 -85 -365 -9 -14 -40 -40 -69 -59 -28 -18 -70 -53 -92 -76 -38
-41 -38 -42 -8 -21 18 12 58 34 90 49 50 23 71 27 153 27 82 0 103 -4 152 -27
62 -29 142 -96 163 -139 13 -23 12 -28 -3 -42 -16 -15 -21 -13 -65 34 -70 75
-140 104 -247 104 -73 0 -93 -4 -142 -28 -65 -32 -121 -89 -152 -156 -31 -68
-30 -207 3 -274 25 -50 67 -100 111 -130 19 -13 14 -12 -25 4 -27 11 -54 24
-60 29 -6 5 -23 14 -39 20 -27 10 -27 8 14 -40 92 -110 220 -170 365 -170 128
1 230 39 321 123 105 95 154 208 154 352 0 147 -50 258 -161 359 l-59 53 2
439 3 439 54 12 c168 37 555 47 726 19 810 -134 1405 -628 1518 -1261 8 -44
22 -94 30 -110 41 -78 46 -275 12 -454 -54 -284 -224 -563 -469 -769 -357
-299 -886 -492 -1350 -492 -226 0 -460 31 -631 85 -46 14 -104 25 -135 24
l-55 0 37 -20 c94 -49 305 -106 503 -135 146 -21 448 -29 580 -15 776 85 1417
511 1649 1099 81 202 115 482 87 695 -43 323 -184 600 -427 842 -87 87 -227
204 -209 175 12 -19 -9 -10 -156 69 -285 155 -538 245 -849 302 -101 19 -466
34 -560 23z m-684 -1150 c52 -18 87 -42 79 -55 -3 -4 -40 -26 -83 -49 -96 -52
-117 -71 -139 -128 -13 -36 -25 -48 -57 -63 l-41 -19 -27 33 c-39 45 -42 66
-19 117 34 76 73 121 131 151 63 33 87 35 156 13z m236 -291 c25 -23 23 -82
-5 -124 -55 -82 -159 -126 -274 -117 -65 6 -93 28 -93 75 0 78 40 112 132 113
37 0 70 5 73 10 3 6 14 10 25 10 10 0 38 11 61 25 52 29 57 30 81 8z"/>
<path d="M1033 3073 c-10 -4 -13 -74 -13 -305 0 -291 -1 -300 -20 -305 -37
-10 -23 -45 36 -92 106 -85 218 -232 280 -367 34 -76 74 -209 74 -250 0 -12
10 -34 23 -50 19 -25 22 -42 26 -151 6 -239 -67 -470 -228 -710 -53 -79 -67
-93 -110 -112 -27 -11 -55 -21 -62 -21 -8 0 -9 -3 -4 -9 36 -35 410 -40 478
-7 77 38 108 144 72 246 -22 63 -19 86 20 129 l35 39 -25 30 c-31 37 -31 43 1
73 40 37 45 52 27 85 -27 50 -33 95 -18 130 12 29 22 35 82 53 76 23 113 53
113 93 0 16 -46 95 -120 209 -66 101 -132 207 -147 236 l-25 53 28 41 c64 91
66 98 49 183 -36 173 -127 386 -232 545 -72 108 -210 252 -222 232 -7 -11 -15
-11 -41 -2 -34 12 -56 13 -77 4z"/>
<path d="M2917 1955 c-37 -461 -242 -780 -653 -1016 -112 -65 -270 -132 -387
-165 -83 -23 -176 -69 -164 -80 9 -9 236 55 337 95 278 111 517 287 672 495
140 188 214 430 206 676 l-3 95 -8 -100z"/>
</g>
</svg>
